<svg width="193" height="216" viewBox="0 0 193 216" fill="none" xmlns="http://www.w3.org/2000/svg">
<path d="M100.824 174.167C135.745 174.167 164.054 146.498 164.054 112.366C164.054 78.2341 135.745 50.5647 100.824 50.5647C65.9024 50.5647 37.5933 78.2341 37.5933 112.366C37.5933 146.498 65.9024 174.167 100.824 174.167Z" fill="#2F2E41"/>
<path d="M75.5629 196.64L56.7538 193.353L62.8543 155.44L81.6627 158.727L75.5629 196.64Z" fill="#2F2E41"/>
<path d="M120.205 165.343L101.122 161.967L94.9331 195.383L114.015 198.76L120.205 165.343Z" fill="#2F2E41"/>
<path d="M120.134 211.48C122.297 208.984 118.529 202.39 111.718 196.752C104.907 191.114 97.6324 188.568 95.4693 191.064C93.3063 193.56 97.0742 200.154 103.885 205.792C110.696 211.43 117.971 213.976 120.134 211.48Z" fill="#2F2E41"/>
<path d="M82.7643 210.396C84.9273 207.9 81.1595 201.306 74.3487 195.668C67.5379 190.031 60.2631 187.484 58.1001 189.98C55.9371 192.477 59.7049 199.071 66.5157 204.708C73.3265 210.346 80.6013 212.893 82.7643 210.396Z" fill="#2F2E41"/>
<path d="M104.656 117.984C117.354 117.984 127.648 108.342 127.648 96.4475C127.648 84.553 117.354 74.9106 104.656 74.9106C91.957 74.9106 81.6628 84.553 81.6628 96.4475C81.6628 108.342 91.957 117.984 104.656 117.984Z" fill="white"/>
<path d="M114.236 95.5111C118.469 95.5111 121.9 92.5765 121.9 88.9564C121.9 85.3364 118.469 82.4017 114.236 82.4017C110.003 82.4017 106.572 85.3364 106.572 88.9564C106.572 92.5765 110.003 95.5111 114.236 95.5111Z" fill="#3F3D56"/>
<path d="M51.038 43.5912C50.0846 20.5721 70.3137 1.07473 96.2211 0.0426519C122.128 -0.989426 143.903 16.8346 144.857 39.8538C145.81 62.8729 127.801 68.103 101.894 69.1351C75.9866 70.1672 51.9914 66.6104 51.038 43.5912Z" fill="#00BFA6"/>
<path d="M161.685 110.276C178.866 106.427 191.793 99.0326 190.556 93.7606C189.32 88.4887 174.389 87.3355 157.208 91.1847C140.026 95.034 127.1 102.428 128.336 107.7C129.573 112.972 144.503 114.125 161.685 110.276Z" fill="#2F2E41"/>
<path d="M36.3821 130.643C53.5637 126.793 66.4898 119.399 65.2535 114.127C64.0171 108.855 49.0864 107.702 31.9049 111.551C14.7233 115.401 1.79718 122.795 3.03353 128.067C4.26988 133.339 19.2005 134.492 36.3821 130.643Z" fill="#2F2E41"/>
<path d="M81.9081 136.69C81.5493 138.541 81.5844 140.44 82.0115 142.278C82.4385 144.117 83.2492 145.859 84.3972 147.405C86.7157 150.527 90.2675 152.661 94.2711 153.338C98.2748 154.014 102.402 153.178 105.746 151.013C109.089 148.849 111.375 145.532 112.1 141.794C113.609 134.009 107.163 131.254 98.8257 129.844C90.4886 128.435 83.4174 128.905 81.9081 136.69Z" fill="white"/>
</svg>
