<svg viewBox="0 0 141 141" fill="none" xmlns="http://www.w3.org/2000/svg">
<rect fill="#141821"/>
<circle cx="70.5" cy="70.5" r="70.5" fill="#D20117"/>
<circle cx="70.5" cy="70.5" r="65.5" fill="#141821"/>
<path d="M98 99.1235L119.742 70.0002L98 40.8765L104.629 32L133 70.0002L104.629 108L98 99.1235Z" fill="white"/>
<path d="M41 99.1234L19.2355 70L40.9779 40.8766L34.3491 32L6 70L34.3712 108L41 99.1234Z" fill="white"/>
<path d="M67.7505 95C67.7505 93.5533 68.1239 92.7133 68.8705 92.48L72.5805 91.5V53.84L67.8905 52.72C67.8905 51.46 68.2872 50.5967 69.0805 50.13H87.0005C90.1272 50.13 92.7405 50.69 94.8405 51.81C96.9872 52.8833 98.5972 54.3533 99.6705 56.22C100.744 58.0867 101.281 60.14 101.281 62.38C101.281 64.9 100.604 67.28 99.2505 69.52C97.8972 71.7133 95.9605 73.51 93.4405 74.91C90.9672 76.31 87.9805 77.01 84.4805 77.01C83.5472 77.01 82.5439 76.9633 81.4705 76.87C80.3972 76.73 79.3705 76.5433 78.3905 76.31V91.36L83.8505 92.41C83.8505 93.11 83.7572 93.6467 83.5705 94.02C83.4305 94.3933 83.1039 94.72 82.5905 95H67.7505ZM84.6905 53.21C83.5239 53.21 82.4039 53.28 81.3305 53.42C80.2572 53.56 79.2772 53.7233 78.3905 53.91V73.09C79.1839 73.2767 80.1172 73.44 81.1905 73.58C82.2639 73.6733 83.3372 73.72 84.4105 73.72C86.7905 73.72 88.7505 73.2533 90.2905 72.32C91.8305 71.34 92.9739 70.0567 93.7205 68.47C94.5139 66.8833 94.9105 65.1567 94.9105 63.29C94.9105 60.07 94.0005 57.5967 92.1805 55.87C90.4072 54.0967 87.9105 53.21 84.6905 53.21Z" fill="#D20117"/>
<path d="M67.7505 95H64.7505V98H67.7505V95ZM68.8705 92.48L68.1044 89.5795L68.0396 89.5966L67.9757 89.6166L68.8705 92.48ZM72.5805 91.5L73.3467 94.4005L75.5805 93.8104V91.5H72.5805ZM72.5805 53.84H75.5805V51.4721L73.2774 50.922L72.5805 53.84ZM67.8905 52.72H64.8905V55.0879L67.1937 55.6379L67.8905 52.72ZM69.0805 50.13V47.13H68.2636L67.5595 47.5442L69.0805 50.13ZM94.8405 51.81L93.4288 54.4571L93.4636 54.4756L93.4989 54.4933L94.8405 51.81ZM99.2505 69.52L101.804 71.0953L101.811 71.0834L101.818 71.0713L99.2505 69.52ZM93.4405 74.91L91.9836 72.2875L91.9732 72.2933L91.9628 72.2992L93.4405 74.91ZM81.4705 76.87L81.0825 79.8448L81.1464 79.8531L81.2107 79.8587L81.4705 76.87ZM78.3905 76.31L79.0854 73.3916L75.3905 72.5119V76.31H78.3905ZM78.3905 91.36H75.3905V93.838L77.824 94.306L78.3905 91.36ZM83.8505 92.41H86.8505V89.932L84.4171 89.464L83.8505 92.41ZM83.5705 94.02L80.8873 92.6784L80.8168 92.8192L80.7616 92.9666L83.5705 94.02ZM82.5905 95V98H83.3555L84.0271 97.6337L82.5905 95ZM81.3305 53.42L80.9425 50.4452L80.9425 50.4452L81.3305 53.42ZM78.3905 53.91L77.7725 50.9743L75.3905 51.4758V53.91H78.3905ZM78.3905 73.09H75.3905V75.466L77.7034 76.0103L78.3905 73.09ZM81.1905 73.58L80.8025 76.5548L80.8664 76.5631L80.9307 76.5687L81.1905 73.58ZM90.2906 72.32L91.8455 74.8856L91.8735 74.8686L91.9012 74.851L90.2906 72.32ZM93.7205 68.47L91.0373 67.1284L91.0213 67.1603L91.0061 67.1926L93.7205 68.47ZM92.1805 55.87L90.0592 57.9913L90.0871 58.0192L90.1158 58.0464L92.1805 55.87ZM70.7505 95C70.7505 94.7623 70.7663 94.6046 70.7813 94.5121C70.7968 94.4172 70.8058 94.4273 70.772 94.5034C70.7358 94.5848 70.6446 94.7543 70.4563 94.9347C70.2588 95.1239 70.017 95.2648 69.7654 95.3434L67.9757 89.6166C66.6326 90.0363 65.7587 91.0101 65.2891 92.0666C64.8622 93.0271 64.7505 94.0717 64.7505 95H70.7505ZM69.6367 95.3805L73.3467 94.4005L71.8144 88.5995L68.1044 89.5795L69.6367 95.3805ZM75.5805 91.5V53.84H69.5805V91.5H75.5805ZM73.2774 50.922L68.5874 49.802L67.1937 55.6379L71.8837 56.7579L73.2774 50.922ZM70.8905 52.72C70.8905 52.5601 70.9033 52.457 70.9139 52.4003C70.9243 52.3446 70.9306 52.344 70.9141 52.38C70.8962 52.4189 70.8593 52.4836 70.7956 52.5548C70.7314 52.6266 70.6618 52.6804 70.6016 52.7158L67.5595 47.5442C65.5248 48.7411 64.8905 50.8375 64.8905 52.72H70.8905ZM69.0805 53.13H87.0005V47.13H69.0805V53.13ZM87.0005 53.13C89.7839 53.13 91.8782 53.6301 93.4288 54.4571L96.2523 49.1629C93.6029 47.7499 90.4705 47.13 87.0005 47.13V53.13ZM93.4989 54.4933C95.181 55.3343 96.3234 56.4173 97.0698 57.7154L102.271 54.7246C100.871 52.2893 98.7935 50.4324 96.1822 49.1267L93.4989 54.4933ZM97.0698 57.7154C97.8708 59.1084 98.2805 60.6428 98.2805 62.38H104.281C104.281 59.6372 103.617 57.065 102.271 54.7246L97.0698 57.7154ZM98.2805 62.38C98.2805 64.3315 97.7648 66.1778 96.6828 67.9687L101.818 71.0713C103.443 68.3822 104.281 65.4685 104.281 62.38H98.2805ZM96.6974 67.9447C95.6447 69.6509 94.1089 71.1068 91.9836 72.2875L94.8975 77.5325C97.8122 75.9132 100.15 73.7758 101.804 71.0953L96.6974 67.9447ZM91.9628 72.2992C90.0334 73.3913 87.5814 74.01 84.4805 74.01V80.01C88.3796 80.01 91.901 79.2287 94.9183 77.5208L91.9628 72.2992ZM84.4805 74.01C83.646 74.01 82.7302 73.9682 81.7304 73.8813L81.2107 79.8587C82.3576 79.9585 83.4485 80.01 84.4805 80.01V74.01ZM81.8586 73.8952C80.8809 73.7677 79.957 73.5991 79.0854 73.3916L77.6957 79.2284C78.7841 79.4876 79.9136 79.6923 81.0825 79.8448L81.8586 73.8952ZM75.3905 76.31V91.36H81.3905V76.31H75.3905ZM77.824 94.306L83.284 95.356L84.4171 89.464L78.9571 88.414L77.824 94.306ZM80.8505 92.41C80.8505 92.6336 80.8351 92.7648 80.8249 92.8235C80.8202 92.8505 80.8187 92.8499 80.8257 92.8271C80.8327 92.8045 80.8506 92.7517 80.8873 92.6784L86.2538 95.3616C86.7445 94.3803 86.8505 93.2998 86.8505 92.41H80.8505ZM80.7616 92.9666C80.9698 92.4114 81.323 92.2741 81.154 92.3663L84.0271 97.6337C84.8848 97.1659 85.8913 96.3753 86.3795 95.0734L80.7616 92.9666ZM82.5905 92H67.7505V98H82.5905V92ZM84.6905 50.21C83.4041 50.21 82.154 50.2872 80.9425 50.4452L81.7186 56.3948C82.6537 56.2728 83.6437 56.21 84.6905 56.21V50.21ZM80.9425 50.4452C79.8063 50.5934 78.7482 50.7689 77.7725 50.9743L79.0086 56.8456C79.8062 56.6777 80.7081 56.5266 81.7186 56.3948L80.9425 50.4452ZM75.3905 53.91V73.09H81.3905V53.91H75.3905ZM77.7034 76.0103C78.6214 76.2262 79.659 76.4056 80.8025 76.5548L81.5786 70.6052C80.5754 70.4743 79.7464 70.3271 79.0777 70.1697L77.7034 76.0103ZM80.9307 76.5687C82.0901 76.6695 83.2501 76.72 84.4105 76.72V70.72C83.4243 70.72 82.4377 70.6771 81.4504 70.5913L80.9307 76.5687ZM84.4105 76.72C87.167 76.72 89.7087 76.1806 91.8455 74.8856L88.7356 69.7544C87.7924 70.3261 86.4141 70.72 84.4105 70.72V76.72ZM91.9012 74.851C93.8997 73.5792 95.4363 71.8697 96.435 69.7474L91.0061 67.1926C90.5115 68.2436 89.7614 69.1008 88.6799 69.789L91.9012 74.851ZM96.4038 69.8116C97.4164 67.7866 97.9105 65.5974 97.9105 63.29H91.9105C91.9105 64.716 91.6114 65.9801 91.0373 67.1284L96.4038 69.8116ZM97.9105 63.29C97.9105 59.4933 96.8202 56.1365 94.2453 53.6936L90.1158 58.0464C91.1809 59.0569 91.9105 60.6467 91.9105 63.29H97.9105ZM94.3019 53.7487C91.8183 51.2651 88.4697 50.21 84.6905 50.21V56.21C87.3514 56.21 88.9962 56.9283 90.0592 57.9913L94.3019 53.7487Z" fill="#D20117"/>
<path d="M60.9463 95.84C56.8397 95.84 53.223 94.93 50.0963 93.11C46.9697 91.2433 44.5197 88.7 42.7463 85.48C41.0197 82.2133 40.1563 78.4567 40.1563 74.21C40.1563 70.6167 40.763 67.3033 41.9763 64.27C43.1897 61.2367 44.8697 58.6 47.0163 56.36C49.163 54.0733 51.7063 52.3 54.6463 51.04C57.5863 49.78 60.7597 49.15 64.1663 49.15C69.0197 49.15 73.313 50.2933 77.0463 52.58L75.7163 62.38C74.083 62.38 73.2197 61.9833 73.1263 61.19L72.5663 55.24C71.353 54.4933 69.8363 53.91 68.0163 53.49C66.243 53.0233 64.423 52.79 62.5563 52.79C59.2897 52.79 56.443 53.5833 54.0163 55.17C51.5897 56.71 49.723 58.9267 48.4163 61.82C47.1097 64.7133 46.4563 68.1433 46.4563 72.11C46.4563 76.17 47.1097 79.7167 48.4163 82.75C49.7697 85.7833 51.6363 88.14 54.0163 89.82C56.3963 91.5 59.1497 92.34 62.2763 92.34C64.3297 92.34 66.2663 91.99 68.0863 91.29C69.953 90.59 71.493 89.6333 72.7063 88.42L73.4063 80.16C74.433 80.16 75.1797 80.2533 75.6463 80.44C76.113 80.6267 76.4163 80.9067 76.5563 81.28L76.9763 90.38C75.1097 92.06 72.7297 93.39 69.8363 94.37C66.943 95.35 63.9797 95.84 60.9463 95.84Z" fill="#D20117"/>
<path d="M50.0963 93.11L48.5585 95.6859L48.5728 95.6944L48.5871 95.7027L50.0963 93.11ZM42.7463 85.48L40.094 86.8819L40.1061 86.9047L40.1185 86.9272L42.7463 85.48ZM47.0163 56.36L49.1823 58.4357L49.193 58.4246L49.2035 58.4133L47.0163 56.36ZM54.6463 51.04L55.8281 53.7974L54.6463 51.04ZM77.0463 52.58L80.0191 52.9834L80.2823 51.044L78.6133 50.0217L77.0463 52.58ZM75.7163 62.38V65.38H78.3367L78.6891 62.7834L75.7163 62.38ZM73.1263 61.19L70.1395 61.4711L70.1428 61.5059L70.1469 61.5405L73.1263 61.19ZM72.5663 55.24L75.5531 54.9589L75.4129 53.4692L74.1386 52.685L72.5663 55.24ZM68.0163 53.49L67.2528 56.3912L67.2971 56.4029L67.3418 56.4132L68.0163 53.49ZM54.0163 55.17L55.6238 57.703L55.641 57.6921L55.6581 57.6809L54.0163 55.17ZM48.4163 61.82L45.6822 60.5852H45.6822L48.4163 61.82ZM48.4163 82.75L45.6611 83.9369L45.6687 83.9546L45.6766 83.9723L48.4163 82.75ZM54.0163 89.82L52.2863 92.2709L54.0163 89.82ZM68.0863 91.29L67.033 88.481L67.0212 88.4854L67.0094 88.49L68.0863 91.29ZM72.7063 88.42L74.8277 90.5413L75.603 89.7659L75.6956 88.6733L72.7063 88.42ZM73.4063 80.16V77.16H70.6498L70.417 79.9067L73.4063 80.16ZM75.6463 80.44L74.5322 83.2254H74.5322L75.6463 80.44ZM76.5563 81.28L79.5531 81.1417L79.5313 80.6694L79.3653 80.2266L76.5563 81.28ZM76.9763 90.38L78.9832 92.6099L80.0386 91.66L79.9731 90.2417L76.9763 90.38ZM69.8363 94.37L68.8739 91.5286L69.8363 94.37ZM60.9463 92.84C57.2969 92.84 54.2148 92.0361 51.6055 90.5173L48.5871 95.7027C52.2312 97.8239 56.3824 98.84 60.9463 98.84V92.84ZM51.6342 90.5341C48.9691 88.943 46.8933 86.7912 45.3742 84.0328L40.1185 86.9272C42.146 90.6088 44.9703 93.5436 48.5585 95.6859L51.6342 90.5341ZM45.3986 84.0781C43.9323 81.304 43.1563 78.0415 43.1563 74.21H37.1563C37.1563 78.8718 38.107 83.1226 40.094 86.8819L45.3986 84.0781ZM43.1563 74.21C43.1563 70.9601 43.7037 68.0293 44.7618 65.3842L39.1909 63.1558C37.8223 66.5773 37.1563 70.2732 37.1563 74.21H43.1563ZM44.7618 65.3842C45.8399 62.6889 47.3158 60.3833 49.1823 58.4357L44.8504 54.2843C42.4235 56.8167 40.5395 59.7844 39.1909 63.1558L44.7618 65.3842ZM49.2035 58.4133C51.0615 56.4342 53.2604 54.8979 55.8281 53.7974L53.4646 48.2826C50.1522 49.7021 47.2645 51.7124 44.8291 54.3067L49.2035 58.4133ZM55.8281 53.7974C58.3708 52.7077 61.1391 52.15 64.1663 52.15V46.15C60.3802 46.15 56.8019 46.8523 53.4646 48.2826L55.8281 53.7974ZM64.1663 52.15C68.5285 52.15 72.2678 53.1712 75.4794 55.1383L78.6133 50.0217C74.3582 47.4155 69.5108 46.15 64.1663 46.15V52.15ZM74.0736 52.1766L72.7436 61.9766L78.6891 62.7834L80.0191 52.9834L74.0736 52.1766ZM75.7163 59.38C75.4227 59.38 75.2255 59.3617 75.1064 59.3428C74.9813 59.3229 74.9972 59.3109 75.0963 59.3565C75.202 59.405 75.4445 59.5395 75.6788 59.8309C75.9292 60.1424 76.0665 60.5052 76.1058 60.8395L70.1469 61.5405C70.3406 63.1873 71.4202 64.2704 72.5913 64.8085C73.6024 65.2731 74.735 65.38 75.7163 65.38V59.38ZM76.1131 60.9089L75.5531 54.9589L69.5795 55.5211L70.1395 61.4711L76.1131 60.9089ZM74.1386 52.685C72.577 51.724 70.7352 51.0386 68.6909 50.5668L67.3418 56.4132C68.9375 56.7814 70.129 57.2626 70.994 57.795L74.1386 52.685ZM68.7798 50.5888C66.7528 50.0554 64.676 49.79 62.5563 49.79V55.79C64.17 55.79 65.7332 55.9913 67.2528 56.3912L68.7798 50.5888ZM62.5563 49.79C58.7828 49.79 55.3495 50.714 52.3746 52.6591L55.6581 57.6809C57.5365 56.4527 59.7966 55.79 62.5563 55.79V49.79ZM52.4089 52.637C49.437 54.523 47.2036 57.2165 45.6822 60.5852L51.1504 63.0548C52.2424 60.6369 53.7424 58.897 55.6238 57.703L52.4089 52.637ZM45.6822 60.5852C44.1623 63.9507 43.4563 67.8206 43.4563 72.11H49.4563C49.4563 68.466 50.057 65.4759 51.1504 63.0548L45.6822 60.5852ZM43.4563 72.11C43.4563 76.4871 44.1604 80.4532 45.6611 83.9369L51.1716 81.5631C50.0589 78.9801 49.4563 75.8529 49.4563 72.11H43.4563ZM45.6766 83.9723C47.2185 87.4281 49.4063 90.238 52.2863 92.2709L55.7464 87.3691C53.8663 86.042 52.3209 84.1385 51.156 81.5277L45.6766 83.9723ZM52.2863 92.2709C55.2102 94.3349 58.578 95.34 62.2763 95.34V89.34C59.7213 89.34 57.5825 88.6651 55.7464 87.3691L52.2863 92.2709ZM62.2763 95.34C64.6781 95.34 66.9816 94.9291 69.1633 94.09L67.0094 88.49C65.551 89.0509 63.9812 89.34 62.2763 89.34V95.34ZM69.1397 94.099C71.3429 93.2728 73.2663 92.1026 74.8277 90.5413L70.585 86.2987C69.7197 87.164 68.5631 87.9072 67.033 88.481L69.1397 94.099ZM75.6956 88.6733L76.3956 80.4133L70.417 79.9067L69.717 88.1667L75.6956 88.6733ZM73.4063 83.16C73.8367 83.16 74.1495 83.18 74.3642 83.2068C74.5958 83.2358 74.6234 83.2619 74.5322 83.2254L76.7605 77.6546C75.733 77.2436 74.5005 77.16 73.4063 77.16V83.16ZM74.5322 83.2254C74.4974 83.2115 74.3576 83.1501 74.189 82.9944C74.0088 82.8281 73.8478 82.6013 73.7473 82.3334L79.3653 80.2266C78.8555 78.8672 77.7923 78.0673 76.7605 77.6546L74.5322 83.2254ZM73.5595 81.4183L73.9795 90.5183L79.9731 90.2417L79.5531 81.1417L73.5595 81.4183ZM74.9694 88.1501C73.4638 89.5052 71.4627 90.6517 68.8739 91.5286L70.7988 97.2114C73.9966 96.1283 76.7555 94.6148 78.9832 92.6099L74.9694 88.1501ZM68.8739 91.5286C66.2883 92.4043 63.65 92.84 60.9463 92.84V98.84C64.3093 98.84 67.5976 98.2957 70.7988 97.2114L68.8739 91.5286Z" fill="#D20117"/>
</svg>
