<svg width="512" height="512" viewBox="0 0 512 512" fill="none" xmlns="http://www.w3.org/2000/svg">
<path d="M81.1119 512L80.571 0.544983L512 255.454L81.1119 512Z" fill="#003D96" fill-opacity="0.85"/>
<path d="M0.538947 511.455L0 0L431.429 254.906L0.538947 511.455Z" fill="#00204E"/>
<path opacity="0.3" d="M186.278 163.094C181.104 163.094 176.142 165.238 172.484 169.055C168.825 172.872 166.77 178.05 166.77 183.448C166.77 188.846 168.825 194.023 172.484 197.841C176.142 201.658 181.104 203.802 186.278 203.802C191.452 203.802 196.414 201.658 200.073 197.841C203.731 194.023 205.786 188.846 205.786 183.448C205.786 178.05 203.731 172.872 200.073 169.055C196.414 165.238 191.452 163.094 186.278 163.094ZM186.278 305.574C181.104 305.574 176.142 307.718 172.484 311.535C168.825 315.353 166.77 320.53 166.77 325.928C166.77 331.326 168.825 336.504 172.484 340.321C176.142 344.138 181.104 346.282 186.278 346.282C191.452 346.282 196.414 344.138 200.073 340.321C203.731 336.504 205.786 331.326 205.786 325.928C205.786 320.53 203.731 315.353 200.073 311.535C196.414 307.718 191.452 305.574 186.278 305.574ZM69.2294 234.334C64.0556 234.334 59.0936 236.478 55.4351 240.295C51.7766 244.113 49.7213 249.29 49.7213 254.688C49.7213 260.086 51.7766 265.264 55.4351 269.081C59.0936 272.898 64.0556 275.042 69.2294 275.042C74.4033 275.042 79.3653 272.898 83.0238 269.081C86.6823 265.264 88.7376 260.086 88.7376 254.688C88.7376 249.29 86.6823 244.113 83.0238 240.295C79.3653 236.478 74.4033 234.334 69.2294 234.334Z" fill="white"/>
<path d="M186.278 213.979C169.696 213.979 157.016 200.749 157.016 183.448C157.016 166.147 169.696 152.916 186.278 152.916C202.86 152.916 215.54 166.147 215.54 183.448C215.54 200.749 202.86 213.979 186.278 213.979ZM186.278 173.271C180.426 173.271 176.524 177.342 176.524 183.448C176.524 189.554 180.426 193.625 186.278 193.625C192.131 193.625 196.032 189.554 196.032 183.448C196.032 177.342 192.131 173.271 186.278 173.271ZM186.278 356.46C169.696 356.46 157.016 343.229 157.016 325.928C157.016 308.627 169.696 295.397 186.278 295.397C202.86 295.397 215.54 308.627 215.54 325.928C215.54 343.229 202.86 356.46 186.278 356.46ZM186.278 315.751C180.426 315.751 176.524 319.822 176.524 325.928C176.524 332.035 180.426 336.105 186.278 336.105C192.131 336.105 196.032 332.035 196.032 325.928C196.032 319.822 192.131 315.751 186.278 315.751ZM69.2295 285.22C52.6476 285.22 39.9673 271.989 39.9673 254.688C39.9673 237.387 52.6476 224.157 69.2295 224.157C85.8114 224.157 98.4917 237.387 98.4917 254.688C98.4917 271.989 85.8114 285.22 69.2295 285.22ZM69.2295 244.511C63.377 244.511 59.4754 248.582 59.4754 254.688C59.4754 260.794 63.377 264.865 69.2295 264.865C75.0819 264.865 78.9835 260.794 78.9835 254.688C78.9835 248.582 75.0819 244.511 69.2295 244.511Z" fill="white"/>
<path d="M81.5423 235.379L164.965 184.632L174.79 202.216L91.3679 252.963L81.5423 235.379Z" fill="white"/>
<path d="M81.5486 273.885L91.3769 256.303L174.792 307.063L164.963 324.645L81.5486 273.885Z" fill="white"/>
</svg>
